<svg xmlns="http://www.w3.org/2000/svg" width="160" height="160" viewBox="0 0 160 160">
  <defs><filter id="s" x="-20%" y="-20%" width="140%" height="140%"><feDropShadow dx="0" dy="2" stdDeviation="2" flood-opacity=".2"/></filter></defs>
  <rect rx="18" ry="18" width="160" height="160" fill="#fff3f3" stroke="#f3b3b3"/>
  <g transform="translate(20,28)" filter="url(#s)">
    <ellipse cx="60" cy="56" rx="52" ry="44" fill="#ffcdcd" stroke="#c66"/>
    <path d="M8,24 l24,-16 10,26 z" fill="#ffcdcd" stroke="#c66"/>
    <path d="M118,24 l-24,-16 -10,26 z" fill="#ffcdcd" stroke="#c66"/>
    <circle cx="42" cy="54" r="7" fill="#111"/>
    <circle cx="78" cy="54" r="7" fill="#111"/>
    <path d="M45 76 C60 68, 60 68, 75 76" stroke="#111" stroke-width="3" fill="none"/>
    <path d="M60 64 l-6 8 M66 64 l6 8" stroke="#111" stroke-width="2"/>
    <path d="M38 92 C60 84, 60 84, 82 92" stroke="#c33" stroke-width="4" fill="none"/>
  </g>
  <text x="80" y="150" font-family="Segoe UI, Arial" font-size="12" fill="#c33" text-anchor="middle">Hardball</text>
</svg>
